<?xml version="1.0" encoding="UTF-8" standalone="no"?>
<svg
   width="200"
   height="200"
   viewBox="0 0 200 200"
   fill="none"
   version="1.1"
   id="svg283"
   xmlns="http://www.w3.org/2000/svg"
   xmlns:svg="http://www.w3.org/2000/svg">
  <defs
     id="defs287" />
  <path
     d="m 3.98,148.8505 0.2975,-1.615 c 0.53833,-0.283 1.13333,-0.524 1.785,-0.723 0.65167,-0.226 1.3175,-0.396 1.9975,-0.51 l 5.1,-24.0545 c -0.6517,-0.1417 -1.2608,-0.3117 -1.8275,-0.51 -0.5383,-0.2267 -1.0058,-0.4675 -1.4025,-0.7225 l 0.34,-1.615 h 4.93 c 0.4817,0 1.0767,-0.0142 1.785,-0.0425 0.7367,-0.0283 1.4875,-0.0567 2.2525,-0.085 0.7933,-0.0567 1.5442,-0.0992 2.2525,-0.1275 0.7367,-0.0567 1.36,-0.085 1.87,-0.085 2.38,0 4.3917,0.255 6.035,0.765 1.6717,0.51 3.0175,1.2325 4.0375,2.1675 1.0483,0.935 1.7992,2.0542 2.2525,3.3575 0.4817,1.275 0.7225,2.692 0.7225,4.25 0,1.615 -0.1417,3.23 -0.425,4.845 -0.2833,1.587 -0.7508,3.117 -1.4025,4.59 -0.6517,1.473 -1.4875,2.847 -2.5075,4.122 -1.02,1.275 -2.2808,2.395 -3.7825,3.358 -1.4733,0.935 -3.1875,1.672 -5.1425,2.21 -1.955,0.538 -4.1933,0.808 -6.715,0.808 -0.3683,0 -0.8783,-0.029 -1.53,-0.085 -0.6233,-0.029 -1.3033,-0.071 -2.04,-0.128 -0.7367,-0.028 -1.4733,-0.071 -2.21,-0.127 -0.70833,-0.029 -1.33167,-0.043 -1.87,-0.043 z M 22.3825,121.523 c -0.51,0 -0.9917,0.0142 -1.445,0.0425 -0.4533,0.0283 -0.8783,0.0708 -1.275,0.1275 l -5.2275,24.6075 c 0.425,0.057 0.9067,0.099 1.445,0.127 0.5383,0.029 0.9633,0.043 1.275,0.043 2.295,0 4.2217,-0.538 5.78,-1.615 1.5583,-1.105 2.8192,-2.508 3.7825,-4.208 0.9633,-1.728 1.6433,-3.64 2.04,-5.737 0.425,-2.097 0.6375,-4.151 0.6375,-6.163 0,-1.161 -0.1133,-2.195 -0.34,-3.102 -0.2267,-0.9067 -0.6092,-1.6575 -1.1475,-2.2525 -0.5383,-0.6233 -1.2608,-1.0908 -2.1675,-1.4025 -0.9067,-0.3117 -2.0258,-0.4675 -3.3575,-0.4675 z m 18.1634,9.0945 -2.72,-0.34 v -1.445 c 0.1417,-0.113 0.425,-0.255 0.85,-0.425 0.425,-0.198 0.9209,-0.396 1.4875,-0.595 0.595,-0.198 1.2184,-0.368 1.87,-0.51 0.6517,-0.141 1.2892,-0.212 1.9125,-0.212 0.765,0 1.36,0.184 1.785,0.552 0.425,0.369 0.7084,0.879 0.85,1.53 l 3.2725,12.878 0.2125,2.55 h 0.085 l 0.8925,-2.508 c 0.5667,-1.36 1.1192,-2.819 1.6575,-4.377 0.5384,-1.587 0.9634,-3.06 1.275,-4.42 0,-0.312 -0.0566,-0.737 -0.17,-1.275 -0.085,-0.567 -0.1841,-1.133 -0.2975,-1.7 -0.1133,-0.595 -0.2266,-1.133 -0.34,-1.615 -0.1133,-0.51 -0.1983,-0.85 -0.255,-1.02 0.3967,-0.17 0.8925,-0.298 1.4875,-0.383 0.595,-0.085 1.19,-0.127 1.785,-0.127 0.595,0 1.1475,0.042 1.6575,0.127 0.51,0.085 0.9209,0.213 1.2325,0.383 -0.7366,3.372 -1.87,6.871 -3.4,10.497 -1.5016,3.627 -3.2441,7.183 -5.2275,10.668 -1.6433,2.918 -3.2866,5.128 -4.93,6.63 -1.615,1.502 -3.485,2.253 -5.61,2.253 -0.595,0 -1.1475,-0.085 -1.6575,-0.255 -0.4816,-0.142 -0.9208,-0.34 -1.3175,-0.595 -0.085,-0.397 -0.0566,-0.865 0.085,-1.403 0.1417,-0.538 0.34,-1.062 0.595,-1.572 0.2834,-0.51 0.6092,-0.978 0.9775,-1.403 0.3684,-0.425 0.7509,-0.708 1.1475,-0.85 l 3.1875,2.253 c 0.1984,-0.142 0.4534,-0.355 0.765,-0.638 0.3117,-0.255 0.6234,-0.595 0.935,-1.02 0.3117,-0.397 0.6234,-0.878 0.935,-1.445 0.3117,-0.567 0.595,-1.218 0.85,-1.955 z m 33.758,6.12 c 0.1983,-0.878 0.3683,-1.657 0.51,-2.337 0.17,-0.68 0.255,-1.388 0.255,-2.125 0,-0.482 -0.1133,-0.893 -0.34,-1.233 -0.1983,-0.368 -0.5667,-0.552 -1.105,-0.552 -0.5383,0 -1.105,0.212 -1.7,0.637 -0.5667,0.397 -1.1333,0.907 -1.7,1.53 -0.5383,0.595 -1.0483,1.261 -1.53,1.998 -0.4533,0.737 -0.8217,1.417 -1.105,2.04 l -2.55,12.155 h -5.865 l 3.655,-18.233 -2.5075,-0.552 0.085,-1.445 c 0.3967,-0.198 0.9067,-0.383 1.53,-0.553 0.6233,-0.198 1.3033,-0.368 2.04,-0.51 0.7367,-0.141 1.4875,-0.255 2.2525,-0.34 0.7933,-0.085 1.5442,-0.127 2.2525,-0.127 l 0.85,0.51 -1.3175,6.205 h 0.2125 c 0.51,-0.935 1.105,-1.813 1.785,-2.635 0.68,-0.822 1.4025,-1.53 2.1675,-2.125 0.765,-0.595 1.5725,-1.063 2.4225,-1.403 0.85,-0.368 1.7142,-0.552 2.5925,-0.552 1.19,0 2.125,0.382 2.805,1.147 0.68,0.765 1.02,1.785 1.02,3.06 0,0.652 -0.0708,1.403 -0.2125,2.253 -0.1417,0.822 -0.3117,1.643 -0.51,2.465 l -2.3375,9.902 h 3.06 v 1.445 c -0.2833,0.227 -0.6658,0.454 -1.1475,0.68 -0.4533,0.227 -0.9633,0.425 -1.53,0.595 -0.5383,0.17 -1.105,0.312 -1.7,0.426 -0.595,0.113 -1.1617,0.17 -1.7,0.17 -0.9633,0 -1.6717,-0.185 -2.125,-0.553 -0.425,-0.368 -0.6375,-0.793 -0.6375,-1.275 0,-0.595 0.0708,-1.233 0.2125,-1.913 0.1417,-0.68 0.2833,-1.331 0.425,-1.954 z m 17.3778,9.223 c 0.5384,0 1.0909,-0.241 1.6575,-0.723 0.595,-0.481 1.1475,-1.076 1.6575,-1.785 0.5384,-0.736 1.02,-1.53 1.445,-2.38 0.4534,-0.878 0.8359,-1.685 1.1475,-2.422 l 1.5725,-8.415 c -0.34,-0.227 -0.6658,-0.383 -0.9775,-0.468 -0.2833,-0.113 -0.6658,-0.17 -1.1475,-0.17 -1.1333,0 -2.1533,0.383 -3.06,1.148 -0.9066,0.737 -1.6716,1.714 -2.295,2.932 -0.6233,1.19 -1.105,2.536 -1.445,4.038 -0.3116,1.502 -0.4675,3.003 -0.4675,4.505 0,1.303 0.1559,2.252 0.4675,2.847 0.3117,0.595 0.7934,0.893 1.445,0.893 z m 5.27,-3.868 c -0.3683,0.907 -0.8358,1.8 -1.4025,2.678 -0.5383,0.85 -1.1616,1.615 -1.87,2.295 -0.7083,0.68 -1.4875,1.232 -2.3375,1.657 -0.85,0.426 -1.7708,0.638 -2.7625,0.638 -1.4733,0 -2.6491,-0.538 -3.5275,-1.615 -0.8783,-1.077 -1.3175,-2.678 -1.3175,-4.803 0,-2.21 0.2975,-4.264 0.8925,-6.162 0.6234,-1.927 1.4875,-3.598 2.5925,-5.015 1.1334,-1.445 2.4934,-2.564 4.08,-3.358 1.5867,-0.821 3.3575,-1.232 5.3125,-1.232 0.7367,0 1.36,0.085 1.87,0.255 0.5384,0.17 1.105,0.382 1.7003,0.637 0.736,-0.283 1.53,-0.495 2.38,-0.637 0.85,-0.142 1.87,-0.213 3.06,-0.213 l -3.57,18.7 h 2.975 v 1.445 c -0.284,0.227 -0.666,0.454 -1.148,0.68 -0.453,0.227 -0.963,0.425 -1.53,0.595 -0.538,0.17 -1.105,0.312 -1.7,0.426 -0.566,0.113 -1.1048,0.17 -1.6148,0.17 -0.9916,0 -1.7,-0.213 -2.125,-0.638 -0.425,-0.425 -0.6375,-0.864 -0.6375,-1.318 0,-0.51 0.0709,-1.175 0.2125,-1.997 0.1417,-0.85 0.3542,-1.913 0.6375,-3.188 z m 36.5273,-5.992 c 0.142,-0.652 0.298,-1.346 0.468,-2.083 0.17,-0.765 0.255,-1.36 0.255,-1.785 0,-0.538 -0.099,-0.963 -0.298,-1.275 -0.17,-0.311 -0.495,-0.467 -0.977,-0.467 -0.482,0 -0.978,0.184 -1.488,0.552 -0.51,0.34 -1.005,0.808 -1.487,1.403 -0.482,0.567 -0.949,1.218 -1.403,1.955 -0.425,0.737 -0.807,1.487 -1.147,2.252 l -2.763,12.198 h -5.695 l 2.593,-11.943 c 0.198,-0.878 0.368,-1.728 0.51,-2.55 0.142,-0.821 0.212,-1.586 0.212,-2.295 0,-1.048 -0.396,-1.572 -1.19,-1.572 -0.396,0 -0.85,0.184 -1.36,0.552 -0.51,0.369 -1.02,0.85 -1.53,1.445 -0.51,0.567 -0.991,1.219 -1.445,1.955 -0.453,0.737 -0.807,1.488 -1.062,2.253 l -2.465,12.155 h -5.95 l 3.782,-18.233 -2.422,-0.552 v -1.445 c 0.453,-0.227 1.006,-0.439 1.657,-0.638 0.68,-0.198 1.389,-0.354 2.125,-0.467 0.737,-0.142 1.488,-0.241 2.253,-0.298 0.765,-0.085 1.473,-0.127 2.125,-0.127 l 0.892,0.51 -1.657,6.205 h 0.17 c 0.425,-0.765 0.935,-1.544 1.53,-2.338 0.623,-0.821 1.317,-1.544 2.082,-2.167 0.765,-0.652 1.587,-1.176 2.465,-1.573 0.879,-0.425 1.771,-0.637 2.678,-0.637 0.34,0 0.694,0.057 1.062,0.17 0.369,0.113 0.709,0.326 1.02,0.637 0.34,0.284 0.61,0.68 0.808,1.19 0.198,0.51 0.297,1.162 0.297,1.955 0,0.397 -0.042,0.85 -0.127,1.36 -0.057,0.51 -0.142,0.978 -0.255,1.403 0.482,-0.878 1.048,-1.728 1.7,-2.55 0.652,-0.822 1.346,-1.53 2.082,-2.125 0.765,-0.623 1.559,-1.119 2.38,-1.488 0.85,-0.368 1.729,-0.552 2.635,-0.552 1.077,0 1.955,0.34 2.635,1.02 0.68,0.68 1.02,1.615 1.02,2.805 0,0.907 -0.085,1.771 -0.255,2.592 -0.17,0.822 -0.354,1.686 -0.552,2.593 l -2.423,9.817 h 2.975 v 1.445 c -0.283,0.227 -0.68,0.454 -1.19,0.68 -0.481,0.227 -1.005,0.425 -1.572,0.595 -0.567,0.17 -1.148,0.312 -1.743,0.426 -0.595,0.113 -1.147,0.17 -1.657,0.17 -1.02,0 -1.728,-0.199 -2.125,-0.596 -0.397,-0.425 -0.595,-0.892 -0.595,-1.402 0,-0.822 0.198,-1.955 0.595,-3.4 z m 10.737,-6.035 v -1.445 c 0.425,-0.17 0.992,-0.34 1.7,-0.51 0.709,-0.198 1.46,-0.368 2.253,-0.51 0.793,-0.142 1.572,-0.255 2.337,-0.34 0.794,-0.113 1.488,-0.17 2.083,-0.17 l 0.765,0.51 -3.825,18.317 h 2.975 v 1.445 c -0.368,0.255 -0.808,0.496 -1.318,0.723 -0.481,0.227 -1.005,0.425 -1.572,0.595 -0.538,0.17 -1.091,0.298 -1.658,0.383 -0.566,0.113 -1.105,0.17 -1.615,0.17 -1.076,0 -1.827,-0.199 -2.252,-0.596 -0.397,-0.425 -0.595,-0.878 -0.595,-1.36 0,-0.566 0.042,-1.119 0.127,-1.657 0.085,-0.538 0.199,-1.133 0.34,-1.785 l 2.89,-13.175 z m 27.486,14.152 c -0.369,0.595 -0.85,1.205 -1.445,1.828 -0.595,0.623 -1.29,1.176 -2.083,1.657 -0.765,0.482 -1.615,0.879 -2.55,1.191 -0.935,0.311 -1.927,0.467 -2.975,0.467 -2.238,0 -4.023,-0.666 -5.355,-1.998 -1.303,-1.331 -1.955,-3.187 -1.955,-5.567 0,-1.983 0.298,-3.868 0.893,-5.653 0.623,-1.785 1.487,-3.343 2.592,-4.675 1.105,-1.36 2.437,-2.422 3.995,-3.187 1.587,-0.793 3.343,-1.19 5.27,-1.19 1.275,0 2.38,0.142 3.315,0.425 0.963,0.255 1.601,0.567 1.913,0.935 0.028,0.312 -0.029,0.708 -0.17,1.19 -0.114,0.453 -0.298,0.921 -0.553,1.402 -0.255,0.454 -0.567,0.893 -0.935,1.318 -0.34,0.397 -0.694,0.68 -1.062,0.85 l -2.593,-3.698 c -0.765,0 -1.544,0.27 -2.337,0.808 -0.765,0.51 -1.46,1.261 -2.083,2.252 -0.623,0.964 -1.133,2.14 -1.53,3.528 -0.397,1.36 -0.595,2.904 -0.595,4.632 0,1.729 0.354,3.004 1.063,3.825 0.708,0.794 1.657,1.19 2.847,1.19 0.567,0 1.105,-0.085 1.615,-0.255 0.538,-0.198 1.034,-0.425 1.488,-0.68 0.453,-0.255 0.864,-0.524 1.232,-0.807 0.397,-0.312 0.737,-0.595 1.02,-0.85 z m 10.723,-0.042 c 0,-0.623 -0.17,-1.176 -0.51,-1.658 -0.34,-0.51 -0.765,-1.005 -1.275,-1.487 -0.51,-0.482 -1.077,-0.949 -1.7,-1.403 -0.595,-0.481 -1.148,-1.02 -1.658,-1.615 -0.51,-0.595 -0.935,-1.246 -1.275,-1.955 -0.34,-0.736 -0.51,-1.586 -0.51,-2.55 0,-2.153 0.765,-3.754 2.295,-4.802 1.559,-1.077 3.67,-1.615 6.333,-1.615 0.453,0 0.949,0.028 1.487,0.085 0.567,0.028 1.134,0.099 1.7,0.213 0.567,0.113 1.105,0.254 1.615,0.424 0.539,0.142 1.02,0.34 1.445,0.595 0.029,0.312 0,0.723 -0.085,1.233 -0.056,0.482 -0.184,0.977 -0.382,1.487 -0.17,0.482 -0.411,0.935 -0.723,1.36 -0.283,0.397 -0.637,0.666 -1.062,0.808 l -3.4,-3.783 c -0.907,0 -1.672,0.185 -2.295,0.553 -0.595,0.368 -0.893,1.02 -0.893,1.955 0,0.623 0.17,1.19 0.51,1.7 0.369,0.51 0.808,1.006 1.318,1.487 0.51,0.454 1.077,0.921 1.7,1.403 0.623,0.482 1.19,1.02 1.7,1.615 0.51,0.567 0.935,1.218 1.275,1.955 0.368,0.737 0.552,1.587 0.552,2.55 0,1.077 -0.24,2.026 -0.722,2.847 -0.482,0.822 -1.148,1.516 -1.998,2.083 -0.821,0.567 -1.813,0.992 -2.975,1.275 -1.161,0.283 -2.422,0.425 -3.782,0.425 -1.445,0 -2.748,-0.17 -3.91,-0.51 -1.133,-0.312 -1.983,-0.666 -2.55,-1.063 -0.028,-0.906 0.127,-1.799 0.467,-2.677 0.369,-0.878 0.893,-1.558 1.573,-2.04 l 4.122,3.867 c 0.935,0 1.771,-0.226 2.508,-0.68 0.737,-0.453 1.105,-1.147 1.105,-2.082 z"
     fill="#303740"
     id="path271" />
  <path
     d="m 154.997,120.7112 c 0,2.4853 -2.014,4.4987 -4.498,4.4987 -2.486,0 -4.499,-2.0134 -4.499,-4.4987 0,-2.4844 2.013,-4.4988 4.499,-4.4988 2.484,0 4.498,2.0144 4.498,4.4988 z"
     fill="#cb3c33"
     fill-opacity="0.8"
     id="path273"
     style="fill:#cb3c33;fill-opacity:1" />
  <path
     d="m 165.806,120.7112 c 0,2.4853 -2.014,4.4987 -4.498,4.4987 -2.485,0 -4.499,-2.0134 -4.499,-4.4987 0,-2.4844 2.014,-4.4988 4.499,-4.4988 2.484,0 4.498,2.0144 4.498,4.4988 z"
     fill="#9558b2"
     fill-opacity="0.8"
     id="path275"
     style="fill:#9558b2;fill-opacity:1" />
  <path
     d="m 160.403,111.3492 c 0,2.4844 -2.014,4.4987 -4.499,4.4987 -2.485,0 -4.499,-2.0143 -4.499,-4.4987 0,-2.4843 2.014,-4.4987 4.499,-4.4987 2.485,0 4.499,2.0144 4.499,4.4987 z"
     fill="#389826"
     fill-opacity="0.8"
     id="path277"
     style="fill:#389826;fill-opacity:1" />
  <path
     d="m 7.84,81.4505 h 13.776 v 1.596 c -0.588,0.308 -1.246,0.574 -1.974,0.798 -0.7,0.196 -1.386,0.336 -2.058,0.42 v 23.856 h 8.106 l 2.814,-7.518 h 1.722 c 0.112,0.644 0.21,1.4 0.294,2.268 0.112,0.868 0.196,1.778 0.252,2.73 0.056,0.952 0.098,1.89 0.126,2.814 0.028,0.924 0.028,1.736 0,2.436 H 7.84 v -1.596 c 0.644,-0.336 1.246,-0.602 1.806,-0.798 0.588,-0.196 1.134,-0.336 1.638,-0.42 v -23.772 c -1.372,-0.224 -2.52,-0.63 -3.444,-1.218 z m 43.8063,23.31 c 0,0.616 0,1.148 0,1.596 0.028,0.448 0.07,0.924 0.126,1.428 l 2.898,0.42 v 1.47 c -0.336,0.168 -0.798,0.336 -1.386,0.504 -0.56,0.168 -1.162,0.336 -1.806,0.504 -0.616,0.14 -1.232,0.252 -1.848,0.336 -0.616,0.112 -1.162,0.196 -1.638,0.252 h -1.428 c -0.28,-0.644 -0.448,-1.288 -0.504,-1.932 -0.056,-0.644 -0.098,-1.428 -0.126,-2.352 h -0.21 c -0.14,0.56 -0.378,1.106 -0.714,1.638 -0.336,0.504 -0.77,0.966 -1.302,1.386 -0.504,0.392 -1.106,0.714 -1.806,0.966 -0.7,0.252 -1.484,0.378 -2.352,0.378 -0.924,0 -1.778,-0.14 -2.562,-0.42 -0.784,-0.28 -1.47,-0.672 -2.058,-1.176 -0.588,-0.504 -1.05,-1.106 -1.386,-1.806 -0.336,-0.728 -0.504,-1.54 -0.504,-2.436 0,-1.26 0.238,-2.296 0.714,-3.108 0.476,-0.812 1.218,-1.47 2.226,-1.974 1.036,-0.532 2.352,-0.924 3.948,-1.176 1.624,-0.252 3.584,-0.434 5.88,-0.546 0.224,-2.408 0.126,-4.172 -0.294,-5.292 -0.42,-1.12 -1.33,-1.68 -2.73,-1.68 -0.868,0 -1.666,0.14 -2.394,0.42 l -1.974,5.04 h -1.848 c -0.224,-0.336 -0.448,-0.714 -0.672,-1.134 -0.196,-0.448 -0.392,-0.91 -0.588,-1.386 -0.168,-0.504 -0.322,-1.008 -0.462,-1.512 -0.112,-0.504 -0.196,-0.994 -0.252,-1.47 1.064,-0.728 2.436,-1.302 4.116,-1.722 1.68,-0.42 3.458,-0.63 5.334,-0.63 1.596,0 2.898,0.182 3.906,0.546 1.008,0.336 1.792,0.812 2.352,1.428 0.588,0.588 0.994,1.288 1.218,2.1 0.224,0.812 0.336,1.68 0.336,2.604 0,1.68 -0.042,3.206 -0.126,4.578 -0.056,1.344 -0.084,2.73 -0.084,4.158 z m -9.45,3.234 c 0.588,0 1.092,-0.112 1.512,-0.336 0.42,-0.224 0.77,-0.49 1.05,-0.798 0.308,-0.308 0.532,-0.644 0.672,-1.008 0.168,-0.364 0.294,-0.686 0.378,-0.966 v -4.2 c -1.316,0.028 -2.394,0.112 -3.234,0.252 -0.84,0.14 -1.498,0.378 -1.974,0.714 -0.476,0.308 -0.812,0.714 -1.008,1.218 -0.168,0.476 -0.252,1.064 -0.252,1.764 0,1.064 0.252,1.89 0.756,2.478 0.504,0.588 1.204,0.882 2.1,0.882 z m 13.6349,-15.498 c -0.42,-0.112 -0.812,-0.252 -1.176,-0.42 -0.336,-0.168 -0.686,-0.364 -1.05,-0.588 v -1.638 h 11.046 v 1.596 c -0.588,0.392 -1.386,0.742 -2.394,1.05 l 4.242,10.542 0.714,2.688 h 0.084 l 0.672,-2.73 3.276,-10.5 c -0.84,-0.168 -1.61,-0.504 -2.31,-1.008 v -1.638 h 8.106 v 1.638 c -0.588,0.392 -1.386,0.728 -2.394,1.008 l -6.846,18.354 c -0.672,1.792 -1.344,3.248 -2.016,4.368 -0.672,1.148 -1.344,2.058 -2.016,2.73 -0.672,0.672 -1.344,1.134 -2.016,1.386 -0.672,0.28 -1.344,0.462 -2.016,0.546 -0.28,-0.252 -0.532,-0.574 -0.756,-0.966 -0.224,-0.364 -0.42,-0.77 -0.588,-1.218 -0.168,-0.42 -0.308,-0.854 -0.42,-1.302 -0.112,-0.448 -0.182,-0.868 -0.21,-1.26 l 0.546,-1.008 h 5.124 c 0.252,-0.392 0.462,-0.812 0.63,-1.26 0.196,-0.448 0.42,-1.12 0.672,-2.016 z m 39.9555,14.826 c -0.224,0.476 -0.588,0.966 -1.092,1.47 -0.476,0.476 -1.078,0.91 -1.806,1.302 -0.7,0.364 -1.526,0.658 -2.478,0.882 -0.924,0.252 -1.932,0.378 -3.024,0.378 -1.736,0 -3.276,-0.252 -4.62,-0.756 -1.344,-0.532 -2.464,-1.274 -3.36,-2.226 -0.896,-0.98 -1.582,-2.142 -2.058,-3.486 -0.448,-1.344 -0.672,-2.856 -0.672,-4.536 0,-3.584 0.938,-6.314 2.814,-8.19 1.876,-1.876 4.48,-2.814 7.812,-2.814 1.428,0 2.758,0.196 3.99,0.588 1.26,0.392 2.296,1.036 3.108,1.932 0.84,0.896 1.414,2.072 1.722,3.528 0.336,1.456 0.322,3.234 -0.042,5.334 h -12.894 c 0.028,2.212 0.588,3.976 1.68,5.292 1.12,1.316 2.758,1.974 4.914,1.974 0.924,0 1.876,-0.14 2.856,-0.42 1.008,-0.28 1.792,-0.644 2.352,-1.092 z m -8.652,-15.582 c -0.56,0 -1.064,0.098 -1.512,0.294 -0.42,0.196 -0.798,0.56 -1.134,1.092 -0.308,0.504 -0.56,1.204 -0.756,2.1 -0.196,0.868 -0.336,1.974 -0.42,3.318 h 6.762 c 0.196,-2.184 0.07,-3.864 -0.378,-5.04 -0.448,-1.176 -1.302,-1.764 -2.562,-1.764 z m 22.1383,2.94 c -0.336,0.168 -0.728,0.448 -1.176,0.84 -0.448,0.392 -0.854,1.036 -1.218,1.932 v 10.752 c 0.56,0.056 1.12,0.168 1.68,0.336 0.56,0.14 1.12,0.364 1.68,0.672 v 1.638 H 98.0593 v -1.638 c 0.504,-0.28 0.98,-0.49 1.428,-0.63 0.448,-0.14 0.8957,-0.266 1.3437,-0.378 v -15.372 l -2.7717,-0.336 v -1.638 c 0.448,-0.196 0.994,-0.378 1.638,-0.546 0.6717,-0.168 1.3577,-0.308 2.0577,-0.42 0.7,-0.14 1.372,-0.252 2.016,-0.336 0.672,-0.084 1.232,-0.154 1.68,-0.21 h 1.428 v 5.586 h 0.168 c 0.224,-0.616 0.546,-1.26 0.966,-1.932 0.448,-0.672 0.966,-1.288 1.554,-1.848 0.588,-0.56 1.232,-1.008 1.932,-1.344 0.7,-0.336 1.428,-0.49 2.184,-0.462 0.308,0.392 0.574,0.952 0.798,1.68 0.224,0.7 0.406,1.372 0.546,2.016 v 1.638 z"
     fill="#303740"
     id="path279" />
  <path
     d="m 6.84,73.8505 v -1.596 c 0.532,-0.308 1.092,-0.574 1.68,-0.798 0.616,-0.224 1.204,-0.364 1.764,-0.42 v -23.772 c -0.56,-0.112 -1.148,-0.266 -1.764,-0.462 -0.616,-0.224 -1.176,-0.476 -1.68,-0.756 v -1.596 h 6.762 c 1.064,0 2.072,-0.042 3.024,-0.126 0.952,-0.084 2.044,-0.126 3.276,-0.126 1.344,0 2.646,0.098 3.906,0.294 1.26,0.196 2.38,0.546 3.36,1.05 0.98,0.504 1.764,1.218 2.352,2.142 0.588,0.896 0.882,2.058 0.882,3.486 0,0.896 -0.168,1.736 -0.504,2.52 -0.308,0.756 -0.756,1.428 -1.344,2.016 -0.56,0.588 -1.232,1.078 -2.016,1.47 -0.756,0.392 -1.582,0.672 -2.478,0.84 v 0.168 c 0.896,0.112 1.792,0.322 2.688,0.63 0.924,0.308 1.75,0.756 2.478,1.344 0.728,0.588 1.316,1.33 1.764,2.226 0.476,0.868 0.714,1.904 0.714,3.108 0,1.512 -0.336,2.814 -1.008,3.906 -0.672,1.092 -1.582,1.988 -2.73,2.688 -1.12,0.7 -2.408,1.218 -3.864,1.554 -1.456,0.308 -2.968,0.462 -4.536,0.462 -0.588,0 -1.232,-0.014 -1.932,-0.042 -0.7,-0.028 -1.4,-0.056 -2.1,-0.084 -0.7,-0.028 -1.386,-0.056 -2.058,-0.084 -0.644,-0.028 -1.19,-0.042 -1.638,-0.042 z m 12.684,-2.478 c 1.764,0 3.15,-0.518 4.158,-1.554 1.008,-1.064 1.512,-2.464 1.512,-4.2 0,-1.064 -0.168,-1.932 -0.504,-2.604 -0.336,-0.7 -0.798,-1.246 -1.386,-1.638 -0.588,-0.42 -1.288,-0.7 -2.1,-0.84 -0.812,-0.168 -1.694,-0.252 -2.646,-0.252 h -2.226 v 10.794 c 0.392,0.084 0.798,0.154 1.218,0.21 0.448,0.056 1.106,0.084 1.974,0.084 z m -1.848,-13.818 c 0.476,0 0.952,-0.014 1.428,-0.042 0.476,-0.056 0.924,-0.112 1.344,-0.168 1.092,-0.448 1.974,-1.134 2.646,-2.058 0.672,-0.952 1.008,-2.03 1.008,-3.234 0,-1.764 -0.462,-3.052 -1.386,-3.864 -0.924,-0.84 -2.114,-1.26 -3.57,-1.26 -0.616,0 -1.148,0.014 -1.596,0.042 -0.448,0.028 -0.854,0.07 -1.218,0.126 v 10.458 z m 16.0614,5.796 c 0,-1.708 0.252,-3.234 0.756,-4.578 0.532,-1.372 1.274,-2.534 2.226,-3.486 0.98,-0.952 2.156,-1.68 3.528,-2.184 1.372,-0.504 2.926,-0.756 4.662,-0.756 1.96,0 3.64,0.28 5.04,0.84 1.428,0.532 2.59,1.288 3.486,2.268 0.924,0.952 1.596,2.114 2.016,3.486 0.42,1.344 0.63,2.814 0.63,4.41 0,1.708 -0.252,3.248 -0.756,4.62 -0.504,1.344 -1.246,2.492 -2.226,3.444 -0.952,0.952 -2.128,1.68 -3.528,2.184 -1.372,0.504 -2.926,0.756 -4.662,0.756 -1.904,0 -3.556,-0.266 -4.956,-0.798 -1.4,-0.56 -2.562,-1.316 -3.486,-2.268 -0.924,-0.98 -1.61,-2.142 -2.058,-3.486 -0.448,-1.372 -0.672,-2.856 -0.672,-4.452 z m 6.51,0 c 0,1.26 0.07,2.422 0.21,3.486 0.168,1.036 0.448,1.918 0.84,2.646 0.392,0.728 0.924,1.302 1.596,1.722 0.672,0.392 1.54,0.588 2.604,0.588 0.616,0 1.176,-0.14 1.68,-0.42 0.504,-0.308 0.938,-0.784 1.302,-1.428 0.364,-0.672 0.63,-1.54 0.798,-2.604 0.196,-1.092 0.294,-2.422 0.294,-3.99 0,-1.288 -0.084,-2.45 -0.252,-3.486 -0.14,-1.036 -0.406,-1.918 -0.798,-2.646 -0.364,-0.728 -0.868,-1.288 -1.512,-1.68 -0.644,-0.42 -1.456,-0.63 -2.436,-0.63 -0.728,0 -1.358,0.154 -1.89,0.462 -0.532,0.28 -0.98,0.756 -1.344,1.428 -0.364,0.644 -0.644,1.512 -0.84,2.604 -0.168,1.064 -0.252,2.38 -0.252,3.948 z m 18.8475,2.184 c 0,-1.764 0.042,-3.402 0.126,-4.914 0.084,-1.512 0.126,-3.108 0.126,-4.788 l -2.772,-0.336 v -1.638 c 0.448,-0.168 0.994,-0.336 1.638,-0.504 0.672,-0.168 1.358,-0.308 2.058,-0.42 0.7,-0.14 1.372,-0.252 2.016,-0.336 0.672,-0.112 1.232,-0.196 1.68,-0.252 h 1.428 c 0,2.1 -0.042,4.172 -0.126,6.216 -0.084,2.016 -0.126,4.004 -0.126,5.964 0,2.296 0.224,3.948 0.672,4.956 0.476,1.008 1.344,1.512 2.604,1.512 0.868,0 1.666,-0.322 2.394,-0.966 0.756,-0.672 1.372,-1.736 1.848,-3.192 v -11.004 l -2.73,-0.336 v -1.638 c 0.42,-0.168 0.938,-0.336 1.554,-0.504 0.644,-0.168 1.302,-0.308 1.974,-0.42 0.7,-0.14 1.386,-0.252 2.058,-0.336 0.672,-0.112 1.26,-0.196 1.764,-0.252 h 1.428 v 18.522 l 2.772,0.336 v 1.47 c -0.392,0.168 -0.882,0.336 -1.47,0.504 -0.588,0.168 -1.204,0.336 -1.848,0.504 -0.644,0.14 -1.288,0.252 -1.932,0.336 -0.616,0.112 -1.176,0.196 -1.68,0.252 h -1.428 l -0.294,-4.998 h -0.168 c -0.14,0.588 -0.392,1.19 -0.756,1.806 -0.364,0.588 -0.84,1.134 -1.428,1.638 -0.56,0.476 -1.232,0.868 -2.016,1.176 -0.784,0.308 -1.652,0.462 -2.604,0.462 -1.064,0 -2.016,-0.14 -2.856,-0.42 -0.812,-0.252 -1.512,-0.714 -2.1,-1.386 -0.588,-0.672 -1.036,-1.568 -1.344,-2.688 -0.308,-1.148 -0.462,-2.59 -0.462,-4.326 z m 48.8491,8.316 H 96.8138 v -1.638 c 0.364,-0.196 0.714,-0.364 1.05,-0.504 0.364,-0.168 0.784,-0.336 1.26,-0.504 v -9.87 c 0,-1.764 -0.252,-3.136 -0.756,-4.116 -0.504,-1.008 -1.4,-1.512 -2.688,-1.512 -1.064,0 -1.988,0.35 -2.772,1.05 -0.756,0.672 -1.33,1.596 -1.722,2.772 v 11.676 c 0.448,0.112 0.84,0.252 1.176,0.42 0.364,0.14 0.742,0.336 1.134,0.588 v 1.638 h -11.13 v -1.638 c 0.7,-0.364 1.624,-0.7 2.772,-1.008 v -15.372 l -2.772,-0.336 v -1.638 c 0.364,-0.168 0.84,-0.322 1.428,-0.462 0.588,-0.168 1.218,-0.322 1.89,-0.462 0.7,-0.14 1.4,-0.252 2.1,-0.336 0.728,-0.112 1.386,-0.196 1.974,-0.252 h 1.428 v 4.326 h 0.042 c 0.588,-1.176 1.47,-2.184 2.646,-3.024 1.176,-0.868 2.604,-1.302 4.284,-1.302 1.092,0 2.0722,0.14 2.9402,0.42 0.868,0.252 1.596,0.714 2.184,1.386 0.616,0.672 1.078,1.582 1.386,2.73 0.336,1.12 0.504,2.548 0.504,4.284 v 10.038 c 1.12,0.196 2.044,0.532 2.772,1.008 z m 15.059,-4.158 c -0.14,0.616 -0.392,1.204 -0.756,1.764 -0.364,0.56 -0.798,1.064 -1.302,1.512 -0.504,0.42 -1.078,0.756 -1.722,1.008 -0.644,0.252 -1.33,0.378 -2.058,0.378 -2.772,0 -4.886,-0.868 -6.342,-2.604 -1.428,-1.764 -2.142,-4.452 -2.142,-8.064 0,-1.848 0.252,-3.458 0.756,-4.83 0.504,-1.4 1.204,-2.576 2.1,-3.528 0.924,-0.952 2.03,-1.666 3.318,-2.142 1.288,-0.476 2.716,-0.714 4.284,-0.714 0.504,0 0.924,0.014 1.26,0.042 0.364,0.028 0.686,0.07 0.966,0.126 0.308,0.028 0.588,0.098 0.84,0.21 0.28,0.084 0.588,0.182 0.924,0.294 v -7.392 l -3.192,-0.336 v -1.638 c 0.392,-0.168 0.924,-0.322 1.596,-0.462 0.7,-0.14 1.428,-0.266 2.184,-0.378 0.756,-0.14 1.498,-0.266 2.226,-0.378 0.728,-0.112 1.33,-0.21 1.806,-0.294 h 1.428 v 28.602 l 2.772,0.336 v 1.47 c -0.392,0.196 -0.896,0.378 -1.512,0.546 -0.616,0.168 -1.26,0.322 -1.932,0.462 -0.672,0.14 -1.33,0.252 -1.974,0.336 -0.616,0.112 -1.134,0.196 -1.554,0.252 h -1.428 l -0.378,-4.578 z m -3.822,1.302 c 0.98,0 1.806,-0.308 2.478,-0.924 0.672,-0.616 1.162,-1.666 1.47,-3.15 v -11.298 c -0.364,-0.224 -0.826,-0.406 -1.386,-0.546 -0.532,-0.14 -1.204,-0.21 -2.016,-0.21 -1.624,0 -2.786,0.742 -3.486,2.226 -0.7,1.456 -1.05,3.584 -1.05,6.384 0,2.268 0.308,4.088 0.924,5.46 0.616,1.372 1.638,2.058 3.066,2.058 z m 32.241,-3.234 c 0,0.616 0,1.148 0,1.596 0.028,0.448 0.07,0.924 0.126,1.428 l 2.898,0.42 v 1.47 c -0.336,0.168 -0.798,0.336 -1.386,0.504 -0.56,0.168 -1.162,0.336 -1.806,0.504 -0.616,0.14 -1.232,0.252 -1.848,0.336 -0.616,0.112 -1.162,0.196 -1.638,0.252 h -1.428 c -0.28,-0.644 -0.448,-1.288 -0.504,-1.932 -0.056,-0.644 -0.098,-1.428 -0.126,-2.352 h -0.21 c -0.14,0.56 -0.378,1.106 -0.714,1.638 -0.336,0.504 -0.77,0.966 -1.302,1.386 -0.504,0.392 -1.106,0.714 -1.806,0.966 -0.7,0.252 -1.484,0.378 -2.352,0.378 -0.924,0 -1.778,-0.14 -2.562,-0.42 -0.784,-0.28 -1.47,-0.672 -2.058,-1.176 -0.588,-0.504 -1.05,-1.106 -1.386,-1.806 -0.336,-0.728 -0.504,-1.54 -0.504,-2.436 0,-1.26 0.238,-2.296 0.714,-3.108 0.476,-0.812 1.218,-1.47 2.226,-1.974 1.036,-0.532 2.352,-0.924 3.948,-1.176 1.624,-0.252 3.584,-0.434 5.88,-0.546 0.224,-2.408 0.126,-4.172 -0.294,-5.292 -0.42,-1.12 -1.33,-1.68 -2.73,-1.68 -0.868,0 -1.666,0.14 -2.394,0.42 l -1.974,5.04 h -1.848 c -0.224,-0.336 -0.448,-0.714 -0.672,-1.134 -0.196,-0.448 -0.392,-0.91 -0.588,-1.386 -0.168,-0.504 -0.322,-1.008 -0.462,-1.512 -0.112,-0.504 -0.196,-0.994 -0.252,-1.47 1.064,-0.728 2.436,-1.302 4.116,-1.722 1.68,-0.42 3.458,-0.63 5.334,-0.63 1.596,0 2.898,0.182 3.906,0.546 1.008,0.336 1.792,0.812 2.352,1.428 0.588,0.588 0.994,1.288 1.218,2.1 0.224,0.812 0.336,1.68 0.336,2.604 0,1.68 -0.042,3.206 -0.126,4.578 -0.056,1.344 -0.084,2.73 -0.084,4.158 z m -9.45,3.234 c 0.588,0 1.092,-0.112 1.512,-0.336 0.42,-0.224 0.77,-0.49 1.05,-0.798 0.308,-0.308 0.532,-0.644 0.672,-1.008 0.168,-0.364 0.294,-0.686 0.378,-0.966 v -4.2 c -1.316,0.028 -2.394,0.112 -3.234,0.252 -0.84,0.14 -1.498,0.378 -1.974,0.714 -0.476,0.308 -0.812,0.714 -1.008,1.218 -0.168,0.476 -0.252,1.064 -0.252,1.764 0,1.064 0.252,1.89 0.756,2.478 0.504,0.588 1.204,0.882 2.1,0.882 z m 24.429,-13.314 c -0.336,0.168 -0.728,0.448 -1.176,0.84 -0.448,0.392 -0.854,1.036 -1.218,1.932 v 10.752 c 0.56,0.056 1.12,0.168 1.68,0.336 0.56,0.14 1.12,0.364 1.68,0.672 v 1.638 h -12.18 v -1.638 c 0.504,-0.28 0.98,-0.49 1.428,-0.63 0.448,-0.14 0.896,-0.266 1.344,-0.378 v -15.372 l -2.772,-0.336 v -1.638 c 0.448,-0.196 0.994,-0.378 1.638,-0.546 0.672,-0.168 1.358,-0.308 2.058,-0.42 0.7,-0.14 1.372,-0.252 2.016,-0.336 0.672,-0.084 1.232,-0.154 1.68,-0.21 h 1.428 v 5.586 h 0.168 c 0.224,-0.616 0.546,-1.26 0.966,-1.932 0.448,-0.672 0.966,-1.288 1.554,-1.848 0.588,-0.56 1.232,-1.008 1.932,-1.344 0.7,-0.336 1.428,-0.49 2.184,-0.462 0.308,0.392 0.574,0.952 0.798,1.68 0.224,0.7 0.406,1.372 0.546,2.016 v 1.638 z m 8.764,-2.184 c -0.42,-0.112 -0.812,-0.252 -1.176,-0.42 -0.336,-0.168 -0.686,-0.364 -1.05,-0.588 v -1.638 h 11.046 v 1.596 c -0.588,0.392 -1.386,0.742 -2.394,1.05 l 4.242,10.542 0.714,2.688 h 0.084 l 0.672,-2.73 3.276,-10.5 c -0.84,-0.168 -1.61,-0.504 -2.31,-1.008 v -1.638 h 8.106 v 1.638 c -0.588,0.392 -1.386,0.728 -2.394,1.008 l -6.846,18.354 c -0.672,1.792 -1.344,3.248 -2.016,4.368 -0.672,1.148 -1.344,2.058 -2.016,2.73 -0.672,0.672 -1.344,1.134 -2.016,1.386 -0.672,0.28 -1.344,0.462 -2.016,0.546 -0.28,-0.252 -0.532,-0.574 -0.756,-0.966 -0.224,-0.364 -0.42,-0.77 -0.588,-1.218 -0.168,-0.42 -0.308,-0.854 -0.42,-1.302 -0.112,-0.448 -0.182,-0.868 -0.21,-1.26 l 0.546,-1.008 h 5.124 c 0.252,-0.392 0.462,-0.812 0.63,-1.26 0.196,-0.448 0.42,-1.12 0.672,-2.016 z"
     fill="#303740"
     id="path281" />
</svg>
